<?xml version="1.0" encoding="UTF-8"?>
<svg width="1200pt" height="1200pt" version="1.1" viewBox="0 0 1200 1200" xmlns="http://www.w3.org/2000/svg">
 <g fill-rule="evenodd">
  <path d="m987.52 487.65c17.434 0 31.66-14.215 31.66-32.27 0-17.145-14.23-31.676-31.66-31.676-16.812 0-31.648 14.531-31.648 31.676-0.011719 18.055 14.824 32.27 31.648 32.27z"/>
  <path d="m54.672 195.68c71.723 0 94.34 39.719 94.34 91.715 0 87.852-51.363 209.31-81.414 279.71l-0.34375 0.66016c-125.59 294.92 63.996 602.73 390.54 603.37h415.99c92.414 0 86.914-99.152 40.707-137.61 1.3203-6.1328 6.1602-22.918 21.008-70.734 19.699-62.02-0.64453-114.33-25.504-150.83 21.309 4.8281 46.496 16.785 66.211 26.465l0.96094 0.32812c30.355 15.18 54.883 26.492 80.742 19.699 33.586-8.7031 48.133-31.637 36.832-78.145l-0.66016-3.5859c-9.6914-35.168-24.871-67.82-45.203-97.848v0.30469c-10.352-15.18-21.324-28.074-32.941-40.707 96.898 21.688 180.21-34.516 176.68-137.56-1.6094-53.934-26.82-115.3-77.523-165.39-12.582-13.227-27.48-24.238-42.328-33.902-9.6406-6.4766-19.688-11.973-29.695-16.801l-60.105-129.2h-0.28516c-2.9258-7.1094-8.0703-13.555-14.559-18.727-20.637-13.543-49.094-9.0469-63.285 11.629-22.973 31.977-38.48 62.031-50.387 91.727-9.9961 25.227-17.789 50.73-25.199 78.832-24.898 23.262-51.059 47.145-72.977 73.637-37.82 15.508-75.586 33.602-112.42 52.641 21.625-34.562 37.477-71.062 42.938-112.75 10.352-78.793-4.1797-141.45-36.477-189.57-125.34-188.32-466.1-133.73-621.13-31.027-41.66 19.055-26.809 83.988 25.488 83.672zm96.938 406.01c32.926-77.223 88.18-208.34 88.18-314.29 0-61.383-16.168-114.64-58.496-147.27 153.12-51.363 447.05-57.508 415.38 180.55-7.7266 58.457-53.617 114.01-99.48 169.89-70.418 85.926-142.43 173.45-125.3 299.41 3.8359 25.215 27.125 41.695 51.363 38.781 20.32-2.9141 35.816-19.055 38.441-38.148 15.508-82.668 60.711-145.33 120.14-195.05 62.676-52.379 142.11-91.148 220.3-123.43 8.375-3.5352 15.508-9.6641 20.02-16.762 22.617-28.445 52.008-54.289 78.832-79.148 7.0664-7.0938 11.617-15.52 13.531-24.539 7.1211-26.82 13.887-51.996 23.922-76.258l29.051 63.652c5.8008 11.973 16.641 18.477 27.758 24.539 17.312 9.4141 36.816 21.797 55.57 36.172 37.516 28.762 50.398 71.062 51.059 104 1.9102 61.398-53.629 54.266-98.836 35.867-20.059-8.3867-42.621-1.6211-54.289 15.836l-39.391 57.453c-14.242 20.059-9.0469 48.793 11.617 63.008l1.3203 0.62109c20.004 14.875 37.465 33.625 51.664 53.629l5.8008 9.0742c-59.09-24.898-130.15-42.344-183.48 28.09-15.137 19.699-10.957 48.105 8.7305 63.625h0.67187l-0.30469 0.31641s62.32 45.875 43.887 104.03c-32.27 103.99-23.25 124.66-23.25 125.31 1.3203 6.1328 4.5234 11.945 8.082 16.785l1.9258 2.2539-378.24 0.003906c-266.81 0-406.64-242.57-306.86-476.41z"/>
 </g>
</svg>
